<svg xmlns="http://www.w3.org/2000/svg" xmlns:xlink="http://www.w3.org/1999/xlink" width="2144" height="1608" viewBox="0 0 2144 1608"><defs><clipPath id="a"><rect width="2144" height="1608" fill="#fff"/></clipPath></defs><g clip-path="url(#a)"><g transform="translate(-278.323 4.152)"><g transform="translate(0 13.266)"><ellipse cx="50.41" cy="49.747" rx="50.41" ry="49.747" transform="translate(2400.174 83.575)" fill="none" stroke="#fbdd74" stroke-linejoin="round" stroke-miterlimit="10" stroke-width="23.236"/><path d="M107.454,112.76h48.484c32.57,0,58.97-25.242,58.97-56.38S188.509,0,155.938,0H58.964C26.4,0,0,25.242,0,56.38" transform="translate(2376.295 245.419)" fill="none" stroke="#ff6e6c" stroke-linejoin="round" stroke-miterlimit="10" stroke-width="23.236"/><path d="M0,91.535A91.4,91.4,0,0,1,91.259,0H252.052" transform="translate(2428.033 1488.435)" fill="none" stroke="#fbdd74" stroke-linejoin="round" stroke-miterlimit="10" stroke-width="23.236"/><path d="M.387,0V131.332" transform="translate(2551.682 405.937)" fill="none" stroke="#ff6e6c" stroke-linejoin="round" stroke-miterlimit="10" stroke-width="23.236"/><path d="M57.781,0H53.622a53.727,53.727,0,0,0,0,107.454H177.353A53.727,53.727,0,0,0,177.353,0h-4.159" transform="translate(1979.57 1472.516)" fill="none" stroke="#1f1235" stroke-linejoin="round" stroke-miterlimit="10" stroke-width="23.236"/><path d="M0,62.35a62.35,62.35,0,1,1,124.7,0" transform="translate(2445.278 679.214)" fill="none" stroke="#fbdd74" stroke-linejoin="round" stroke-miterlimit="10" stroke-width="23.236"/><path d="M0,55.054C0,24.648,24.351,0,54.39,0s54.39,24.648,54.39,55.054S84.43,110.107,54.39,110.107,0,85.459,0,55.054Z" transform="translate(2591.867 789.985)" fill="none" stroke="#ff6e6c" stroke-linejoin="round" stroke-miterlimit="10" stroke-width="23.236"/><path d="M99.494,0c0,27.841-22.272,50.41-49.747,50.41S0,27.841,0,0" transform="translate(7.004 222.867)" fill="none" stroke="#fbdd74" stroke-linejoin="round" stroke-miterlimit="10" stroke-width="23.236"/><path d="M62.35,124.7A62.35,62.35,0,1,1,62.35,0" transform="translate(1506.052 1460.576)" fill="none" stroke="#67568c" stroke-linejoin="round" stroke-miterlimit="10" stroke-width="23.236"/><path d="M59.117,103.474a52.032,52.032,0,0,0,52.317-51.737A52.032,52.032,0,0,0,59.117,0H0" transform="translate(2040.668 185.722)" fill="none" stroke="#ff6e6c" stroke-linejoin="round" stroke-miterlimit="10" stroke-width="23.236"/><path d="M400.63,0H104.867A104.834,104.834,0,0,0,0,104.8" transform="translate(38.843 0)" fill="none" stroke="#1f1235" stroke-linejoin="round" stroke-miterlimit="10" stroke-width="23.236"/><path d="M143.272,273.322V71.574A71.636,71.636,0,1,0,0,71.574V102.8" transform="translate(2169.347 1311.954)" fill="none" stroke="#67568c" stroke-linejoin="round" stroke-miterlimit="10" stroke-width="23.236"/><ellipse cx="35.818" cy="35.155" rx="35.818" ry="35.155" transform="translate(8.331 1120.969)" fill="none" stroke="#fbdd74" stroke-linejoin="round" stroke-miterlimit="10" stroke-width="23.236"/><path d="M124.7,245.419c68.87,0,124.7-54.938,124.7-122.71S193.569,0,124.7,0,0,54.938,0,122.71" transform="translate(148.95 279.911)" fill="none" stroke="#ff6e6c" stroke-linejoin="round" stroke-miterlimit="10" stroke-width="23.236"/><path d="M49.747,99.494A49.747,49.747,0,1,0,0,49.747V99.494" transform="translate(106.499 68.983)" fill="none" stroke="#ff6e6c" stroke-linejoin="round" stroke-miterlimit="10" stroke-width="23.236"/><path d="M114.591,57.707A57.3,57.3,0,1,1,57.3,0H169.8" transform="translate(259.056 68.983)" fill="none" stroke="#fbdd74" stroke-linejoin="round" stroke-miterlimit="10" stroke-width="23.236"/><path d="M0,117.319v-77.4a39.8,39.8,0,1,1,79.6,0V194.721a39.8,39.8,0,1,1-79.6,0v-18.7" transform="translate(1143.893 0.084)" fill="none" stroke="#ff6e6c" stroke-linejoin="round" stroke-miterlimit="10" stroke-width="23.236"/><path d="M0,0V201.415a109.444,109.444,0,0,0,218.887,0V153.827" transform="translate(1069.604 11.939)" fill="none" stroke="#67568c" stroke-linejoin="round" stroke-miterlimit="10" stroke-width="23.236"/><path d="M0,0H238.758c90.864,0,164.525,73.945,164.525,165.161S329.622,330.321,238.758,330.321H166.926" transform="translate(1849.639 68.983)" fill="none" stroke="#67568c" stroke-linejoin="round" stroke-miterlimit="10" stroke-width="23.236"/><path d="M152.558,0V108.8c0,46.88-38.358,84.886-85.683,84.886H0" transform="translate(2337.824 405.937)" fill="none" stroke="#1f1235" stroke-linejoin="round" stroke-miterlimit="10" stroke-width="23.236"/><path d="M0,0V72.953a95.516,95.516,0,0,0,95.524,95.524" transform="translate(841.43 472.266)" fill="none" stroke="#67568c" stroke-linejoin="round" stroke-miterlimit="10" stroke-width="23.236"/><path d="M0,249.4V135.206C0,69.455,51.526,14.376,120.72,0" transform="translate(694.178 738.911)" fill="none" stroke="#ff6e6c" stroke-linejoin="round" stroke-miterlimit="10" stroke-width="23.236"/><path d="M0,62.858a63.013,63.013,0,0,1,126.026,0v45.635A63.013,63.013,0,1,1,0,108.493Z" transform="translate(2298.027 356.742)" fill="none" stroke="#67568c" stroke-linejoin="round" stroke-miterlimit="10" stroke-width="23.236"/><path d="M94.188,360.833V94.453A94.321,94.321,0,0,0,0,0" transform="translate(897.147 120.72)" fill="none" stroke="#ff6e6c" stroke-linejoin="round" stroke-miterlimit="10" stroke-width="23.236"/><circle cx="42.451" cy="42.451" r="42.451" transform="translate(1840.353 237.46)" fill="none" stroke="#67568c" stroke-linejoin="round" stroke-miterlimit="10" stroke-width="23.236"/><path d="M122.046,240.113c67.4,0,122.046-53.751,122.046-120.056S189.446,0,122.046,0,0,53.751,0,120.056" transform="translate(1760.757 159.191)" fill="none" stroke="#ff6e6c" stroke-linejoin="round" stroke-miterlimit="10" stroke-width="23.236"/><path d="M49.747,0A49.747,49.747,0,1,0,99.494,49.747V0" transform="translate(1626.772 82.249)" fill="none" stroke="#1f1235" stroke-linejoin="round" stroke-miterlimit="10" stroke-width="23.236"/><path d="M57.289,117.746A57.205,57.205,0,1,0,115,174.944V0" transform="translate(1422.894 953.819)" fill="none" stroke="#fbdd74" stroke-linejoin="round" stroke-miterlimit="10" stroke-width="23.236"/><path d="M121.822,52.4A51.853,51.853,0,1,0,173.677,0H0" transform="translate(1133.28 1408.839)" fill="none" stroke="#ff6e6c" stroke-linejoin="round" stroke-miterlimit="10" stroke-width="23.236"/><path d="M68.319,135.154c37.732,0,68.319-30.257,68.319-67.573S106.052,0,68.319,0,0,30.257,0,67.583v276" transform="translate(7.004 1246.995)" fill="none" stroke="#67568c" stroke-linejoin="round" stroke-miterlimit="10" stroke-width="23.236"/><path d="M48.923,0H180.807a49.084,49.084,0,1,1,0,98.168H48.923A49.084,49.084,0,1,1,48.923,0Z" transform="translate(988.567 1481.802)" fill="none" stroke="#fbdd74" stroke-linejoin="round" stroke-miterlimit="10" stroke-width="23.236"/><path d="M238.786,0A119.393,119.393,0,0,1,119.393,119.393,119.393,119.393,0,0,1,0,0" transform="translate(553.56 340.934)" fill="none" stroke="#ff6e6c" stroke-linejoin="round" stroke-miterlimit="10" stroke-width="23.236"/><path d="M103.474,197.662V51.737A51.737,51.737,0,1,0,0,51.737V74.326" transform="translate(792.346 202.968)" fill="none" stroke="#1f1235" stroke-linejoin="round" stroke-miterlimit="10" stroke-width="23.236"/><ellipse cx="35.818" cy="35.155" rx="35.818" ry="35.155" transform="translate(553.56 521.35)" fill="none" stroke="#1f1235" stroke-linejoin="round" stroke-miterlimit="10" stroke-width="23.236"/><path d="M0,198.085V51.563a51.737,51.737,0,1,1,103.474,0V198.085A51.737,51.737,0,1,1,0,198.085Z" transform="translate(619.889 120.596)" fill="none" stroke="#fbdd74" stroke-linejoin="round" stroke-miterlimit="10" stroke-width="23.236"/><path d="M250.726,0H133.886A133.938,133.938,0,0,0,0,133.986" transform="translate(1553.809 400.63)" fill="none" stroke="#ff6e6c" stroke-linejoin="round" stroke-miterlimit="10" stroke-width="23.236"/><path d="M49.747,98.845A49.423,49.423,0,1,0,0,49.423V371.446" transform="translate(223.239 356.852)" fill="none" stroke="#1f1235" stroke-linejoin="round" stroke-miterlimit="10" stroke-width="23.236"/><path d="M52.4,0C23.461,0,0,23.164,0,51.737s23.461,51.737,52.4,51.737,52.4-23.164,52.4-51.737V0" transform="translate(1868.211 657.989)" fill="none" stroke="#ff6e6c" stroke-linejoin="round" stroke-miterlimit="10" stroke-width="23.236"/><path d="M0,144.272c0,74.179,60.881,134.312,135.976,134.312s135.976-60.133,135.976-134.312V0" transform="translate(2240.983 758.81)" fill="none" stroke="#67568c" stroke-linejoin="round" stroke-miterlimit="10" stroke-width="23.236"/><path d="M76.432,139.292H69.666A69.646,69.646,0,1,1,69.666,0h212.18a69.646,69.646,0,0,1,0,139.292h-2.083" transform="translate(2093.746 826.466)" fill="none" stroke="#1f1235" stroke-linejoin="round" stroke-miterlimit="10" stroke-width="23.236"/><path d="M0,0H85.606C143.1,0,189.7,46.327,189.7,103.474" transform="translate(2040.668 657.989)" fill="none" stroke="#67568c" stroke-linejoin="round" stroke-miterlimit="10" stroke-width="23.236"/><ellipse cx="50.41" cy="49.747" rx="50.41" ry="49.747" transform="translate(1102.768 1081.172)" fill="none" stroke="#1f1235" stroke-linejoin="round" stroke-miterlimit="10" stroke-width="23.236"/><path d="M4.512,92.225C-13.981,161.372,26.03,232.188,93.871,250.4S231.7,227.321,250.192,158.18,228.679,18.217,160.838,0" transform="translate(1025.825 1009.536)" fill="none" stroke="#fbdd74" stroke-linejoin="round" stroke-miterlimit="10" stroke-width="23.236"/><path d="M331.563,174.761H85.8C38.437,174.737.023,135.6,0,87.34S38.353-.024,85.715,0s85.779,39.161,85.8,87.422H91.495" transform="translate(790.652 834.245)" fill="none" stroke="#1f1235" stroke-miterlimit="10" stroke-width="23.236"/><path d="M.387,0V234.807" transform="translate(1116.31 725.645)" fill="none" stroke="#67568c" stroke-linejoin="round" stroke-miterlimit="10" stroke-width="23.236"/><path d="M38.5,75.616C17.235,75.616,0,58.69,0,37.808S17.235,0,38.5,0H79.6" transform="translate(626.522 1386.287)" fill="none" stroke="#fbdd74" stroke-linejoin="round" stroke-miterlimit="10" stroke-width="23.236"/><ellipse cx="55.054" cy="54.39" rx="55.054" ry="54.39" transform="translate(379.776 1410.166)" fill="none" stroke="#ff6e6c" stroke-linejoin="round" stroke-miterlimit="10" stroke-width="23.236"/><path d="M240.113,122.046C240.113,54.646,186.362,0,120.056,0S0,54.646,0,122.046,53.751,244.093,120.056,244.093" transform="translate(310.794 1341.183)" fill="none" stroke="#1f1235" stroke-linejoin="round" stroke-miterlimit="10" stroke-width="23.236"/><path d="M111.434,116.74h50.284c33.772,0,61.149-26.134,61.149-58.37S195.49,0,161.718,0H61.149C27.377,0,0,26.134,0,58.37" transform="translate(643.768 1269.547)" fill="none" stroke="#1f1235" stroke-linejoin="round" stroke-miterlimit="10" stroke-width="23.236"/><path d="M0,111.434C0,49.9,49.674,0,110.951,0H306.442" transform="translate(552.233 1191.279)" fill="none" stroke="#1f1235" stroke-linejoin="round" stroke-miterlimit="10" stroke-width="23.236"/><path d="M.387,0V111.434" transform="translate(488.833 1191.279)" fill="none" stroke="#ff6e6c" stroke-linejoin="round" stroke-miterlimit="10" stroke-width="23.236"/><path d="M.387,0V96.841" transform="translate(1043.348 858.304)" fill="none" stroke="#ff6e6c" stroke-linejoin="round" stroke-miterlimit="10" stroke-width="23.236"/><path d="M108.894,55.054a54.75,54.75,0,0,1-54.447,55.054A54.75,54.75,0,0,1,0,55.054,54.75,54.75,0,0,1,54.446,0H229.5" transform="translate(1088.176 529.31)" fill="none" stroke="#ff6e6c" stroke-linejoin="round" stroke-miterlimit="10" stroke-width="23.236"/><path d="M0,117.319v-77.4a39.8,39.8,0,1,1,79.6,0V194.721a39.8,39.8,0,1,1-79.6,0v-18.7" transform="translate(1387.985 585.111)" fill="none" stroke="#fbdd74" stroke-linejoin="round" stroke-miterlimit="10" stroke-width="23.236"/><path d="M0,0V201.415a109.444,109.444,0,0,0,218.887,0V153.827" transform="translate(1319.003 585.027)" fill="none" stroke="#67568c" stroke-linejoin="round" stroke-miterlimit="10" stroke-width="23.236"/><path d="M132.659,0H75.218A75.414,75.414,0,0,0,0,75.616" transform="translate(1203.589 405.937)" fill="none" stroke="#1f1235" stroke-linejoin="round" stroke-miterlimit="10" stroke-width="23.236"/><path d="M.387,0V180.416" transform="translate(1386.935 348.893)" fill="none" stroke="#ff6e6c" stroke-linejoin="round" stroke-miterlimit="10" stroke-width="23.236"/><path d="M179.09,41.437V58.926a44.945,44.945,0,1,1-89.889,0V44.439a44.6,44.6,0,1,0-89.2,0V62.267" transform="translate(1537.89 602.157)" fill="none" stroke="#67568c" stroke-linejoin="round" stroke-miterlimit="10" stroke-width="23.236"/><path d="M116.523,233.48a116.74,116.74,0,0,1,0-233.48h106.5" transform="translate(0.217 789.322)" fill="none" stroke="#fbdd74" stroke-linejoin="round" stroke-miterlimit="10" stroke-width="23.236"/><path d="M49.7,29.292A49.693,49.693,0,1,0,99.449,78.987V0" transform="translate(245.836 977.697)" fill="none" stroke="#1f1235" stroke-linejoin="round" stroke-miterlimit="10" stroke-width="23.236"/><path d="M94.722,103.474h-42.8A51.737,51.737,0,1,1,51.919,0h85.6a51.894,51.894,0,0,1,52.05,51.737v4.6a47.284,47.284,0,0,1-47.426,47.14" transform="translate(76.117 854.324)" fill="none" stroke="#ff6e6c" stroke-linejoin="round" stroke-miterlimit="10" stroke-width="23.236"/><path d="M0,171.13V92.774C0,47.658,35.672,9.865,83.575,0" transform="translate(351.918 733.605)" fill="none" stroke="#fbdd74" stroke-linejoin="round" stroke-miterlimit="10" stroke-width="23.236"/><path d="M.387,188.376V0" transform="translate(295.151 600.946)" fill="none" stroke="#67568c" stroke-linejoin="round" stroke-miterlimit="10" stroke-width="23.236"/><path d="M0,63.583a63.676,63.676,0,1,1,127.353,0v148.9A63.676,63.676,0,0,1,0,212.482Z" transform="translate(423.554 815.787)" fill="none" stroke="#67568c" stroke-linejoin="round" stroke-miterlimit="10" stroke-width="23.236"/><path d="M0,52.317A52.03,52.03,0,0,1,51.737,0a52.03,52.03,0,0,1,51.737,52.317v59.117" transform="translate(1626.771 1115.663)" fill="none" stroke="#ff6e6c" stroke-linejoin="round" stroke-miterlimit="10" stroke-width="23.236"/><ellipse cx="55.054" cy="54.39" rx="55.054" ry="54.39" transform="translate(1784.636 1030.761)" fill="none" stroke="#ff6e6c" stroke-linejoin="round" stroke-miterlimit="10" stroke-width="23.236"/><path d="M99.141,49.747A49.571,49.571,0,1,1,49.571,0H234.807" transform="translate(1633.404 1276.18)" fill="none" stroke="#fbdd74" stroke-linejoin="round" stroke-miterlimit="10" stroke-width="23.236"/><path d="M0,0H180.633a124.7,124.7,0,0,1,0,249.4H126.291" transform="translate(1670.549 959.125)" fill="none" stroke="#1f1235" stroke-linejoin="round" stroke-miterlimit="10" stroke-width="23.236"/><path d="M0,0H57.237A104.83,104.83,0,0,1,161.844,105.059v107.2" transform="translate(1933.214 1276.18)" fill="none" stroke="#fbdd74" stroke-linejoin="round" stroke-miterlimit="10" stroke-width="23.236"/><ellipse cx="35.818" cy="35.155" rx="35.818" ry="35.155" transform="translate(1953.113 1346.49)" fill="none" stroke="#1f1235" stroke-linejoin="round" stroke-miterlimit="10" stroke-width="23.236"/><g transform="translate(1794.547 1422.105)"><path d="M.365,0,.442,39.8" transform="translate(-0.365 78.269)" fill="none" stroke="#67568c" stroke-linejoin="round" stroke-miterlimit="10" stroke-width="23.236"/><path d="M.365,0,.442,39.8" transform="translate(-0.365)" fill="none" stroke="#fbdd74" stroke-linejoin="round" stroke-miterlimit="10" stroke-width="23.236"/></g><path d="M.365,0,.442,39.8" transform="translate(1546.11 1354.449)" fill="none" stroke="#67568c" stroke-linejoin="round" stroke-miterlimit="10" stroke-width="23.236"/><path d="M.365,0,.442,39.8" transform="translate(1546.11 1276.18)" fill="none" stroke="#ff6e6c" stroke-linejoin="round" stroke-miterlimit="10" stroke-width="23.236"/><path d="M.365,0,.442,39.8" transform="translate(1466.514 1276.18)" fill="none" stroke="#fbdd74" stroke-linejoin="round" stroke-miterlimit="10" stroke-width="23.236"/><path d="M.365,0,.442,39.8" transform="translate(914.653 1171.38)" fill="none" stroke="#1f1235" stroke-linejoin="round" stroke-miterlimit="10" stroke-width="23.236"/><path d="M.365,0,.442,39.8" transform="translate(326.973 1199.238)" fill="none" stroke="#ff6e6c" stroke-linejoin="round" stroke-miterlimit="10" stroke-width="23.236"/><path d="M.365,0,.442,39.8" transform="translate(506.063 663.295)" fill="none" stroke="#ff6e6c" stroke-linejoin="round" stroke-miterlimit="10" stroke-width="23.236"/><path d="M.365,0,.442,39.8" transform="translate(441.06 565.128)" fill="none" stroke="#fbdd74" stroke-linejoin="round" stroke-miterlimit="10" stroke-width="23.236"/><path d="M.365,0,.442,39.8" transform="translate(147.883 460.327)" fill="none" stroke="#67568c" stroke-linejoin="round" stroke-miterlimit="10" stroke-width="23.236"/><path d="M.365,0,.442,39.8" transform="translate(990.268 619.518)" fill="none" stroke="#67568c" stroke-linejoin="round" stroke-miterlimit="10" stroke-width="23.236"/><path d="M.365,0,.442,39.8" transform="translate(1385.592 198.989)" fill="none" stroke="#67568c" stroke-linejoin="round" stroke-miterlimit="10" stroke-width="23.236"/><path d="M.365,0,.442,39.8" transform="translate(1385.592 123.373)" fill="none" stroke="#1f1235" stroke-linejoin="round" stroke-miterlimit="10" stroke-width="23.236"/><path d="M.365,0,.442,39.8" transform="translate(1822.041 831.772)" fill="none" stroke="#1f1235" stroke-linejoin="round" stroke-miterlimit="10" stroke-width="23.236"/><path d="M.365,0,.442,39.8" transform="translate(1916.229 831.772)" fill="none" stroke="#1f1235" stroke-linejoin="round" stroke-miterlimit="10" stroke-width="23.236"/><path d="M.365,0,.442,39.8" transform="translate(2010.417 831.772)" fill="none" stroke="#1f1235" stroke-linejoin="round" stroke-miterlimit="10" stroke-width="23.236"/><path d="M.365,0,.442,39.8" transform="translate(2539.726 1325.264)" fill="none" stroke="#ff6e6c" stroke-linejoin="round" stroke-miterlimit="10" stroke-width="23.236"/></g><path d="M132.6,222.262C59.363,222.262,0,156.936,0,76.337A156.246,156.246,0,0,1,19.569,0" transform="translate(1537.889 69.587)" fill="none" stroke="#fbdd74" stroke-linejoin="round" stroke-miterlimit="10" stroke-width="23.236"/><path d="M167.672,0H77.4A124.036,124.036,0,0,0,0,27.426" transform="translate(1593.085)" fill="none" stroke="#fbdd74" stroke-linejoin="round" stroke-miterlimit="10" stroke-width="23.236"/><path d="M0,132.6C0,59.363,65.329,0,145.925,0a156.248,156.248,0,0,1,76.337,19.569" transform="translate(2134.855 1156.786)" fill="none" stroke="#ff6e6c" stroke-linejoin="round" stroke-miterlimit="10" stroke-width="23.236"/><path d="M27.43,167.672V77.4C27.43,48.943,17.564,22.58.562.715.516.655.265.326,0,0" transform="translate(2399.276 1211.982)" fill="none" stroke="#ff6e6c" stroke-linejoin="round" stroke-miterlimit="10" stroke-width="23.236"/></g></g></svg>